<svg xmlns="http://www.w3.org/2000/svg" xmlns:xlink="http://www.w3.org/1999/xlink" width="430"
  zoomAndPan="magnify" viewBox="0 0 322.5 119.999999" height="160"
  preserveAspectRatio="xMidYMid meet" version="1.0">
  <defs>
    <g />
    <clipPath id="748f51b874">
      <path d="M 0 0.09375 L 322 0.09375 L 322 119.90625 L 0 119.90625 Z M 0 0.09375 "
        clip-rule="nonzero" />
    </clipPath>
  </defs>
  <g clip-path="url(#748f51b874)">
</g>
  <g fill="#000000" fill-opacity="1">
    <g transform="translate(22.179208, 113.0837)">
      <g>
        <path
          d="M 45.09375 -106.234375 L 97.640625 -38.4375 L 97.640625 -81.421875 C 97.640625 -86.609375 97.207031 -90.414062 96.34375 -92.84375 C 95.476562 -95.28125 94.664062 -96.929688 93.90625 -97.796875 C 91.632812 -100.503906 88.226562 -102.128906 83.6875 -102.671875 L 83.6875 -106.234375 L 114.5 -106.234375 L 114.5 -102.671875 C 112.125 -102.773438 110.175781 -102.363281 108.65625 -101.4375 C 107.144531 -100.519531 105.957031 -99.46875 105.09375 -98.28125 C 103.582031 -96.226562 102.632812 -93.820312 102.25 -91.0625 C 101.875 -88.3125 101.6875 -85.3125 101.6875 -82.0625 L 101.6875 2.265625 L 96.171875 2.265625 L 24.8125 -89.53125 L 24.8125 -24.328125 C 24.8125 -20.972656 25 -17.914062 25.375 -15.15625 C 25.757812 -12.40625 26.707031 -10.003906 28.21875 -7.953125 C 29.082031 -6.753906 30.269531 -5.695312 31.78125 -4.78125 C 33.300781 -3.863281 35.25 -3.457031 37.625 -3.5625 L 37.625 0 L 6.8125 0 L 6.8125 -3.5625 C 8.976562 -3.78125 10.976562 -4.347656 12.8125 -5.265625 C 14.644531 -6.191406 16.050781 -7.25 17.03125 -8.4375 C 17.894531 -9.519531 18.566406 -10.867188 19.046875 -12.484375 C 19.535156 -14.109375 19.914062 -15.726562 20.1875 -17.34375 C 20.457031 -18.96875 20.617188 -20.484375 20.671875 -21.890625 C 20.734375 -23.296875 20.765625 -24.328125 20.765625 -24.984375 L 20.765625 -90.828125 C 20.765625 -92.660156 20.546875 -94.390625 20.109375 -96.015625 C 19.679688 -97.640625 18.976562 -98.882812 18 -99.75 C 17.457031 -100.289062 16.484375 -100.859375 15.078125 -101.453125 C 13.671875 -102.046875 11.238281 -102.453125 7.78125 -102.671875 L 7.78125 -106.234375 Z M 45.09375 -106.234375 " />
      </g>
    </g>
  </g>
  <g fill="#000000" fill-opacity="1">
    <g transform="translate(174.962821, 113.0837)">
      <g>
        <path
          d="M 58.546875 -106.234375 C 66.117188 -106.234375 72.820312 -105.851562 78.65625 -105.09375 C 84.5 -104.34375 89.582031 -102.664062 93.90625 -100.0625 C 97.039062 -98.226562 99.523438 -95.984375 101.359375 -93.328125 C 103.203125 -90.679688 104.125 -87.46875 104.125 -83.6875 C 104.125 -79.90625 103.257812 -76.71875 101.53125 -74.125 C 99.800781 -71.53125 97.257812 -69.148438 93.90625 -66.984375 C 90.769531 -64.929688 87.304688 -63.335938 83.515625 -62.203125 C 79.734375 -61.066406 75.25 -60.117188 70.0625 -59.359375 L 70.0625 -58.390625 C 72.332031 -57.953125 74.765625 -57.378906 77.359375 -56.671875 C 79.953125 -55.972656 82.546875 -55.140625 85.140625 -54.171875 C 87.742188 -53.203125 90.234375 -52.09375 92.609375 -50.84375 C 94.984375 -49.601562 97.09375 -48.171875 98.9375 -46.546875 C 102.175781 -43.734375 104.414062 -40.757812 105.65625 -37.625 C 106.90625 -34.488281 107.53125 -31.515625 107.53125 -28.703125 C 107.53125 -24.921875 106.71875 -21.300781 105.09375 -17.84375 C 103.476562 -14.382812 101.367188 -11.460938 98.765625 -9.078125 C 96.285156 -6.804688 93.613281 -5.078125 90.75 -3.890625 C 87.882812 -2.703125 84.910156 -1.8125 81.828125 -1.21875 C 78.742188 -0.625 75.578125 -0.269531 72.328125 -0.15625 C 69.085938 -0.0507812 65.953125 0 62.921875 0 L 6.8125 0 L 6.8125 -3.5625 L 20.4375 -3.5625 L 20.4375 -102.671875 L 6.8125 -102.671875 L 6.8125 -106.234375 Z M 55.796875 -3.5625 C 61.847656 -3.5625 66.304688 -4.179688 69.171875 -5.421875 C 72.035156 -6.671875 74.117188 -8.269531 75.421875 -10.21875 C 77.148438 -12.59375 78.203125 -15.078125 78.578125 -17.671875 C 78.953125 -20.273438 79.140625 -22.441406 79.140625 -24.171875 L 79.140625 -35.515625 C 79.140625 -38.222656 78.867188 -41.035156 78.328125 -43.953125 C 77.796875 -46.867188 76.445312 -49.460938 74.28125 -51.734375 C 73.09375 -53.035156 71.738281 -54.0625 70.21875 -54.8125 C 68.707031 -55.570312 67.164062 -56.164062 65.59375 -56.59375 C 64.03125 -57.03125 62.570312 -57.300781 61.21875 -57.40625 C 59.875 -57.519531 58.769531 -57.578125 57.90625 -57.578125 L 45.40625 -57.578125 L 45.40625 -3.5625 Z M 56.921875 -61.140625 C 58.984375 -61.140625 61.363281 -61.382812 64.0625 -61.875 C 66.769531 -62.363281 69.363281 -63.6875 71.84375 -65.84375 C 74.007812 -67.6875 75.332031 -69.550781 75.8125 -71.4375 C 76.300781 -73.332031 76.546875 -75.203125 76.546875 -77.046875 L 76.546875 -87.75 C 76.546875 -90.664062 75.894531 -93.257812 74.59375 -95.53125 C 73.300781 -97.800781 71.46875 -99.53125 69.09375 -100.71875 C 67.25 -101.6875 65.21875 -102.253906 63 -102.421875 C 60.789062 -102.585938 58.765625 -102.671875 56.921875 -102.671875 L 45.40625 -102.671875 L 45.40625 -61.140625 Z M 56.921875 -61.140625 " />
      </g>
    </g>
  </g>
  <path stroke-linecap="butt"
    transform="matrix(0.00000000151998, -0.870883, 0.870883, 0.00000000151998, 160.129314, 116.972516)"
    fill="none" stroke-linejoin="miter" d="M 1.49796 0.999774 L 124.671264 0.999774 "
    stroke="#000000" stroke-width="2" stroke-opacity="1" stroke-miterlimit="4" />
  <path stroke-linecap="round"
    transform="matrix(0.00000000151998, -0.870883, 0.870883, 0.00000000151998, 160.129314, 116.972516)"
    fill="none" stroke-linejoin="round" d="M 1.000082 -2.000952 L 1.000082 4.0005 " stroke="#000000"
    stroke-width="2" stroke-opacity="1" stroke-miterlimit="4" />
  <path stroke-linecap="round"
    transform="matrix(0.00000000151998, -0.870883, 0.870883, 0.00000000151998, 160.129314, 116.972516)"
    fill="none" stroke-linejoin="round" d="M 125.173628 -2.000953 L 125.173628 4.0005 "
    stroke="#000000" stroke-width="2" stroke-opacity="1" stroke-miterlimit="4" />
</svg>