<svg xmlns="http://www.w3.org/2000/svg" xmlns:xlink="http://www.w3.org/1999/xlink" width="430"
  zoomAndPan="magnify" viewBox="0 0 322.5 119.999999" height="160"
  preserveAspectRatio="xMidYMid meet" version="1.0">
  <defs>
    <g />
    <clipPath id="748f51b874">
      <path d="M 0 0.09375 L 322 0.09375 L 322 119.90625 L 0 119.90625 Z M 0 0.09375 "
        clip-rule="nonzero" />
    </clipPath>
  </defs>
  <g clip-path="url(#748f51b874)">
  </g>
  <g fill="#ffffff" fill-opacity="1">
    <g transform="translate(22.179208, 113.0837)">
      <g>
        <path
          d="M 45.140625 -106.359375 L 97.75 -38.484375 L 97.75 -81.515625 C 97.75 -86.710938 97.316406 -90.523438 96.453125 -92.953125 C 95.585938 -95.390625 94.773438 -97.039062 94.015625 -97.90625 C 91.742188 -100.613281 88.332031 -102.238281 83.78125 -102.78125 L 83.78125 -106.359375 L 114.640625 -106.359375 L 114.640625 -102.78125 C 112.253906 -102.894531 110.300781 -102.488281 108.78125 -101.5625 C 107.269531 -100.644531 106.082031 -99.59375 105.21875 -98.40625 C 103.707031 -96.34375 102.757812 -93.929688 102.375 -91.171875 C 102 -88.410156 101.8125 -85.40625 101.8125 -82.15625 L 101.8125 2.265625 L 96.28125 2.265625 L 24.84375 -89.625 L 24.84375 -24.359375 C 24.84375 -21.003906 25.03125 -17.945312 25.40625 -15.1875 C 25.789062 -12.425781 26.738281 -10.015625 28.25 -7.953125 C 29.113281 -6.765625 30.300781 -5.707031 31.8125 -4.78125 C 33.332031 -3.863281 35.285156 -3.460938 37.671875 -3.578125 L 37.671875 0 L 6.8125 0 L 6.8125 -3.578125 C 8.976562 -3.785156 10.984375 -4.347656 12.828125 -5.265625 C 14.671875 -6.191406 16.078125 -7.25 17.046875 -8.4375 C 17.910156 -9.519531 18.585938 -10.875 19.078125 -12.5 C 19.566406 -14.125 19.945312 -15.75 20.21875 -17.375 C 20.488281 -19 20.648438 -20.515625 20.703125 -21.921875 C 20.753906 -23.328125 20.78125 -24.351562 20.78125 -25 L 20.78125 -90.9375 C 20.78125 -92.769531 20.5625 -94.5 20.125 -96.125 C 19.695312 -97.75 19 -98.992188 18.03125 -99.859375 C 17.488281 -100.398438 16.507812 -100.96875 15.09375 -101.5625 C 13.6875 -102.15625 11.253906 -102.5625 7.796875 -102.78125 L 7.796875 -106.359375 Z M 45.140625 -106.359375 " />
      </g>
    </g>
  </g>
  <g fill="#ffffff" fill-opacity="1">
    <g transform="translate(174.978245, 111.619199)">
      <g>
        <path
          d="M 58.625 -106.359375 C 66.195312 -106.359375 72.90625 -105.976562 78.75 -105.21875 C 84.59375 -104.457031 89.679688 -102.78125 94.015625 -100.1875 C 97.148438 -98.34375 99.640625 -96.09375 101.484375 -93.4375 C 103.328125 -90.789062 104.25 -87.570312 104.25 -83.78125 C 104.25 -80 103.378906 -76.804688 101.640625 -74.203125 C 99.910156 -71.609375 97.367188 -69.226562 94.015625 -67.0625 C 90.878906 -65 87.414062 -63.398438 83.625 -62.265625 C 79.832031 -61.128906 75.335938 -60.179688 70.140625 -59.421875 L 70.140625 -58.453125 C 72.421875 -58.023438 74.859375 -57.457031 77.453125 -56.75 C 80.046875 -56.039062 82.640625 -55.195312 85.234375 -54.21875 C 87.835938 -53.25 90.328125 -52.140625 92.703125 -50.890625 C 95.085938 -49.648438 97.203125 -48.222656 99.046875 -46.609375 C 102.296875 -43.785156 104.539062 -40.804688 105.78125 -37.671875 C 107.03125 -34.535156 107.65625 -31.554688 107.65625 -28.734375 C 107.65625 -24.953125 106.84375 -21.328125 105.21875 -17.859375 C 103.59375 -14.398438 101.484375 -11.476562 98.890625 -9.09375 C 96.398438 -6.820312 93.71875 -5.085938 90.84375 -3.890625 C 87.976562 -2.703125 85.003906 -1.8125 81.921875 -1.21875 C 78.835938 -0.625 75.671875 -0.269531 72.421875 -0.15625 C 69.171875 -0.0507812 66.03125 0 63 0 L 6.8125 0 L 6.8125 -3.578125 L 20.453125 -3.578125 L 20.453125 -102.78125 L 6.8125 -102.78125 L 6.8125 -106.359375 Z M 55.859375 -3.578125 C 61.921875 -3.578125 66.382812 -4.195312 69.25 -5.4375 C 72.125 -6.6875 74.207031 -8.285156 75.5 -10.234375 C 77.238281 -12.609375 78.296875 -15.09375 78.671875 -17.6875 C 79.046875 -20.289062 79.234375 -22.457031 79.234375 -24.1875 L 79.234375 -35.5625 C 79.234375 -38.269531 78.960938 -41.082031 78.421875 -44 C 77.878906 -46.925781 76.53125 -49.523438 74.375 -51.796875 C 73.175781 -53.097656 71.816406 -54.125 70.296875 -54.875 C 68.785156 -55.632812 67.242188 -56.226562 65.671875 -56.65625 C 64.109375 -57.09375 62.648438 -57.363281 61.296875 -57.46875 C 59.941406 -57.582031 58.832031 -57.640625 57.96875 -57.640625 L 45.46875 -57.640625 L 45.46875 -3.578125 Z M 57 -61.21875 C 59.050781 -61.21875 61.429688 -61.457031 64.140625 -61.9375 C 66.847656 -62.425781 69.445312 -63.753906 71.9375 -65.921875 C 74.09375 -67.765625 75.414062 -69.632812 75.90625 -71.53125 C 76.394531 -73.425781 76.640625 -75.289062 76.640625 -77.125 L 76.640625 -87.84375 C 76.640625 -90.769531 75.988281 -93.367188 74.6875 -95.640625 C 73.394531 -97.910156 71.554688 -99.640625 69.171875 -100.828125 C 67.328125 -101.804688 65.296875 -102.375 63.078125 -102.53125 C 60.859375 -102.695312 58.832031 -102.78125 57 -102.78125 L 45.46875 -102.78125 L 45.46875 -61.21875 Z M 57 -61.21875 " />
      </g>
    </g>
  </g>
  <path stroke-linecap="butt"
    transform="matrix(0.00000000152166, -0.871845, 0.871845, 0.00000000152166, 160.128348, 115.512324)"
    fill="none" stroke-linejoin="miter" d="M 1.501641 0.999778 L 124.673419 0.999778 "
    stroke="#ffffff" stroke-width="2" stroke-opacity="1" stroke-miterlimit="4" />
  <path stroke-linecap="round"
    transform="matrix(0.00000000152166, -0.871845, 0.871845, 0.00000000152166, 160.128348, 115.512324)"
    fill="none" stroke-linejoin="round" d="M 0.999832 -2.002117 L 0.999832 4.001673 "
    stroke="#ffffff" stroke-width="2" stroke-opacity="1" stroke-miterlimit="4" />
  <path stroke-linecap="round"
    transform="matrix(0.00000000152166, -0.871845, 0.871845, 0.00000000152166, 160.128348, 115.512324)"
    fill="none" stroke-linejoin="round" d="M 125.170748 -2.002117 L 125.170748 4.001673 "
    stroke="#ffffff" stroke-width="2" stroke-opacity="1" stroke-miterlimit="4" />
  <path fill="#212121"
    d="M 8.253906 44.3125 L 313.722656 44.3125 C 317.546875 44.3125 320.644531 47.410156 320.644531 51.230469 L 320.644531 65.074219 C 320.644531 68.894531 317.546875 71.992188 313.722656 71.992188 L 8.253906 71.992188 C 4.429688 71.992188 1.332031 68.894531 1.332031 65.074219 L 1.332031 51.230469 C 1.332031 47.410156 4.429688 44.3125 8.253906 44.3125 Z M 8.253906 44.3125 "
    fill-opacity="1" fill-rule="nonzero" />
  <g fill="#ffffff" fill-opacity="1">
    <g transform="translate(10.782664, 64.255273)">
      <g>
        <path
          d="M 11.8125 -11.828125 L 11.8125 0 L 10.78125 0 L 3.171875 -9.59375 L 3.171875 0 L 1.921875 0 L 1.921875 -11.828125 L 2.953125 -11.828125 L 10.578125 -2.234375 L 10.578125 -11.828125 Z M 11.8125 -11.828125 " />
      </g>
    </g>
  </g>
  <g fill="#ffffff" fill-opacity="1">
    <g transform="translate(29.892398, 64.255273)">
      <g>
        <path
          d="M 10.28125 -1.078125 L 10.28125 0 L 1.921875 0 L 1.921875 -11.828125 L 10.03125 -11.828125 L 10.03125 -10.75 L 3.171875 -10.75 L 3.171875 -6.53125 L 9.296875 -6.53125 L 9.296875 -5.46875 L 3.171875 -5.46875 L 3.171875 -1.078125 Z M 10.28125 -1.078125 " />
      </g>
    </g>
  </g>
  <g fill="#ffffff" fill-opacity="1">
    <g transform="translate(46.571645, 64.255273)">
      <g>
        <path
          d="M 10.25 -5.90625 L 11.453125 -5.90625 L 11.453125 -1.40625 C 10.898438 -0.914062 10.242188 -0.539062 9.484375 -0.28125 C 8.734375 -0.03125 7.941406 0.09375 7.109375 0.09375 C 5.929688 0.09375 4.867188 -0.160156 3.921875 -0.671875 C 2.972656 -1.191406 2.226562 -1.910156 1.6875 -2.828125 C 1.144531 -3.742188 0.875 -4.769531 0.875 -5.90625 C 0.875 -7.050781 1.144531 -8.082031 1.6875 -9 C 2.226562 -9.914062 2.972656 -10.628906 3.921875 -11.140625 C 4.867188 -11.660156 5.9375 -11.921875 7.125 -11.921875 C 8.03125 -11.921875 8.859375 -11.773438 9.609375 -11.484375 C 10.367188 -11.203125 11.003906 -10.78125 11.515625 -10.21875 L 10.75 -9.421875 C 9.8125 -10.347656 8.617188 -10.8125 7.171875 -10.8125 C 6.222656 -10.8125 5.359375 -10.597656 4.578125 -10.171875 C 3.804688 -9.753906 3.203125 -9.171875 2.765625 -8.421875 C 2.328125 -7.671875 2.109375 -6.832031 2.109375 -5.90625 C 2.109375 -4.988281 2.328125 -4.15625 2.765625 -3.40625 C 3.203125 -2.664062 3.800781 -2.082031 4.5625 -1.65625 C 5.332031 -1.226562 6.195312 -1.015625 7.15625 -1.015625 C 8.375 -1.015625 9.40625 -1.316406 10.25 -1.921875 Z M 10.25 -5.90625 " />
      </g>
    </g>
  </g>
  <g fill="#ffffff" fill-opacity="1">
    <g transform="translate(65.00625, 64.255273)">
      <g>
        <path
          d="M 10 0 L 7.296875 -3.796875 C 6.992188 -3.765625 6.675781 -3.75 6.34375 -3.75 L 3.171875 -3.75 L 3.171875 0 L 1.921875 0 L 1.921875 -11.828125 L 6.34375 -11.828125 C 7.851562 -11.828125 9.035156 -11.460938 9.890625 -10.734375 C 10.753906 -10.015625 11.1875 -9.023438 11.1875 -7.765625 C 11.1875 -6.847656 10.953125 -6.066406 10.484375 -5.421875 C 10.015625 -4.785156 9.347656 -4.328125 8.484375 -4.046875 L 11.375 0 Z M 6.3125 -4.8125 C 7.488281 -4.8125 8.382812 -5.070312 9 -5.59375 C 9.625 -6.113281 9.9375 -6.835938 9.9375 -7.765625 C 9.9375 -8.722656 9.625 -9.457031 9 -9.96875 C 8.382812 -10.488281 7.488281 -10.75 6.3125 -10.75 L 3.171875 -10.75 L 3.171875 -4.8125 Z M 6.3125 -4.8125 " />
      </g>
    </g>
  </g>
  <g fill="#ffffff" fill-opacity="1">
    <g transform="translate(82.596932, 64.255273)">
      <g>
        <path
          d="M 7.09375 0.09375 C 5.925781 0.09375 4.863281 -0.164062 3.90625 -0.6875 C 2.957031 -1.207031 2.210938 -1.921875 1.671875 -2.828125 C 1.140625 -3.742188 0.875 -4.769531 0.875 -5.90625 C 0.875 -7.050781 1.140625 -8.078125 1.671875 -8.984375 C 2.210938 -9.898438 2.957031 -10.617188 3.90625 -11.140625 C 4.863281 -11.660156 5.925781 -11.921875 7.09375 -11.921875 C 8.257812 -11.921875 9.3125 -11.660156 10.25 -11.140625 C 11.195312 -10.628906 11.941406 -9.914062 12.484375 -9 C 13.023438 -8.082031 13.296875 -7.050781 13.296875 -5.90625 C 13.296875 -4.769531 13.023438 -3.742188 12.484375 -2.828125 C 11.941406 -1.910156 11.195312 -1.191406 10.25 -0.671875 C 9.3125 -0.160156 8.257812 0.09375 7.09375 0.09375 Z M 7.09375 -1.015625 C 8.03125 -1.015625 8.875 -1.222656 9.625 -1.640625 C 10.382812 -2.066406 10.976562 -2.65625 11.40625 -3.40625 C 11.832031 -4.15625 12.046875 -4.988281 12.046875 -5.90625 C 12.046875 -6.832031 11.832031 -7.671875 11.40625 -8.421875 C 10.976562 -9.171875 10.382812 -9.753906 9.625 -10.171875 C 8.875 -10.597656 8.03125 -10.8125 7.09375 -10.8125 C 6.15625 -10.8125 5.304688 -10.597656 4.546875 -10.171875 C 3.785156 -9.753906 3.1875 -9.171875 2.75 -8.421875 C 2.320312 -7.671875 2.109375 -6.832031 2.109375 -5.90625 C 2.109375 -4.988281 2.320312 -4.15625 2.75 -3.40625 C 3.1875 -2.65625 3.785156 -2.066406 4.546875 -1.640625 C 5.304688 -1.222656 6.15625 -1.015625 7.09375 -1.015625 Z M 7.09375 -1.015625 " />
      </g>
    </g>
  </g>
  <g fill="#ffffff" fill-opacity="1">
    <g transform="translate(102.145502, 64.255273)">
      <g />
    </g>
  </g>
  <g fill="#ffffff" fill-opacity="1">
    <g transform="translate(111.955257, 64.255273)">
      <g>
        <path
          d="M 5.1875 0.09375 C 4.3125 0.09375 3.46875 -0.046875 2.65625 -0.328125 C 1.851562 -0.609375 1.234375 -0.976562 0.796875 -1.4375 L 1.28125 -2.40625 C 1.707031 -1.96875 2.273438 -1.617188 2.984375 -1.359375 C 3.691406 -1.097656 4.425781 -0.96875 5.1875 -0.96875 C 6.238281 -0.96875 7.03125 -1.160156 7.5625 -1.546875 C 8.09375 -1.929688 8.359375 -2.4375 8.359375 -3.0625 C 8.359375 -3.53125 8.210938 -3.90625 7.921875 -4.1875 C 7.640625 -4.46875 7.289062 -4.679688 6.875 -4.828125 C 6.457031 -4.984375 5.878906 -5.15625 5.140625 -5.34375 C 4.242188 -5.5625 3.53125 -5.773438 3 -5.984375 C 2.476562 -6.191406 2.023438 -6.507812 1.640625 -6.9375 C 1.265625 -7.363281 1.078125 -7.945312 1.078125 -8.6875 C 1.078125 -9.28125 1.234375 -9.820312 1.546875 -10.3125 C 1.867188 -10.800781 2.351562 -11.191406 3 -11.484375 C 3.65625 -11.773438 4.46875 -11.921875 5.4375 -11.921875 C 6.113281 -11.921875 6.773438 -11.828125 7.421875 -11.640625 C 8.066406 -11.460938 8.628906 -11.207031 9.109375 -10.875 L 8.6875 -9.875 C 8.1875 -10.207031 7.65625 -10.453125 7.09375 -10.609375 C 6.53125 -10.773438 5.976562 -10.859375 5.4375 -10.859375 C 4.40625 -10.859375 3.625 -10.65625 3.09375 -10.25 C 2.570312 -9.851562 2.3125 -9.34375 2.3125 -8.71875 C 2.3125 -8.238281 2.453125 -7.851562 2.734375 -7.5625 C 3.023438 -7.28125 3.382812 -7.0625 3.8125 -6.90625 C 4.25 -6.757812 4.835938 -6.597656 5.578125 -6.421875 C 6.441406 -6.203125 7.140625 -5.988281 7.671875 -5.78125 C 8.210938 -5.570312 8.664062 -5.253906 9.03125 -4.828125 C 9.40625 -4.410156 9.59375 -3.84375 9.59375 -3.125 C 9.59375 -2.53125 9.429688 -1.988281 9.109375 -1.5 C 8.785156 -1.007812 8.289062 -0.617188 7.625 -0.328125 C 6.96875 -0.046875 6.15625 0.09375 5.1875 0.09375 Z M 5.1875 0.09375 " />
      </g>
    </g>
  </g>
  <g fill="#ffffff" fill-opacity="1">
    <g transform="translate(127.723074, 64.255273)">
      <g>
        <path
          d="M 7.09375 0.09375 C 5.925781 0.09375 4.863281 -0.164062 3.90625 -0.6875 C 2.957031 -1.207031 2.210938 -1.921875 1.671875 -2.828125 C 1.140625 -3.742188 0.875 -4.769531 0.875 -5.90625 C 0.875 -7.050781 1.140625 -8.078125 1.671875 -8.984375 C 2.210938 -9.898438 2.957031 -10.617188 3.90625 -11.140625 C 4.863281 -11.660156 5.925781 -11.921875 7.09375 -11.921875 C 8.257812 -11.921875 9.3125 -11.660156 10.25 -11.140625 C 11.195312 -10.628906 11.941406 -9.914062 12.484375 -9 C 13.023438 -8.082031 13.296875 -7.050781 13.296875 -5.90625 C 13.296875 -4.769531 13.023438 -3.742188 12.484375 -2.828125 C 11.941406 -1.910156 11.195312 -1.191406 10.25 -0.671875 C 9.3125 -0.160156 8.257812 0.09375 7.09375 0.09375 Z M 7.09375 -1.015625 C 8.03125 -1.015625 8.875 -1.222656 9.625 -1.640625 C 10.382812 -2.066406 10.976562 -2.65625 11.40625 -3.40625 C 11.832031 -4.15625 12.046875 -4.988281 12.046875 -5.90625 C 12.046875 -6.832031 11.832031 -7.671875 11.40625 -8.421875 C 10.976562 -9.171875 10.382812 -9.753906 9.625 -10.171875 C 8.875 -10.597656 8.03125 -10.8125 7.09375 -10.8125 C 6.15625 -10.8125 5.304688 -10.597656 4.546875 -10.171875 C 3.785156 -9.753906 3.1875 -9.171875 2.75 -8.421875 C 2.320312 -7.671875 2.109375 -6.832031 2.109375 -5.90625 C 2.109375 -4.988281 2.320312 -4.15625 2.75 -3.40625 C 3.1875 -2.65625 3.785156 -2.066406 4.546875 -1.640625 C 5.304688 -1.222656 6.15625 -1.015625 7.09375 -1.015625 Z M 7.09375 -1.015625 " />
      </g>
    </g>
  </g>
  <g fill="#ffffff" fill-opacity="1">
    <g transform="translate(147.271637, 64.255273)">
      <g>
        <path
          d="M 9.375 -6.09375 C 10.15625 -5.925781 10.753906 -5.59375 11.171875 -5.09375 C 11.597656 -4.59375 11.8125 -3.945312 11.8125 -3.15625 C 11.8125 -2.144531 11.4375 -1.363281 10.6875 -0.8125 C 9.9375 -0.269531 8.828125 0 7.359375 0 L 1.921875 0 L 1.921875 -11.828125 L 7.03125 -11.828125 C 8.34375 -11.828125 9.363281 -11.5625 10.09375 -11.03125 C 10.820312 -10.5 11.1875 -9.75 11.1875 -8.78125 C 11.1875 -8.125 11.023438 -7.566406 10.703125 -7.109375 C 10.378906 -6.660156 9.9375 -6.320312 9.375 -6.09375 Z M 3.171875 -10.796875 L 3.171875 -6.5 L 6.9375 -6.5 C 7.894531 -6.5 8.632812 -6.679688 9.15625 -7.046875 C 9.675781 -7.410156 9.9375 -7.941406 9.9375 -8.640625 C 9.9375 -9.335938 9.675781 -9.867188 9.15625 -10.234375 C 8.632812 -10.609375 7.894531 -10.796875 6.9375 -10.796875 Z M 7.34375 -1.03125 C 8.40625 -1.03125 9.207031 -1.207031 9.75 -1.5625 C 10.289062 -1.925781 10.5625 -2.492188 10.5625 -3.265625 C 10.5625 -4.734375 9.488281 -5.46875 7.34375 -5.46875 L 3.171875 -5.46875 L 3.171875 -1.03125 Z M 7.34375 -1.03125 " />
      </g>
    </g>
  </g>
  <g fill="#ffffff" fill-opacity="1">
    <g transform="translate(165.385546, 64.255273)">
      <g>
        <path
          d="M 10 0 L 7.296875 -3.796875 C 6.992188 -3.765625 6.675781 -3.75 6.34375 -3.75 L 3.171875 -3.75 L 3.171875 0 L 1.921875 0 L 1.921875 -11.828125 L 6.34375 -11.828125 C 7.851562 -11.828125 9.035156 -11.460938 9.890625 -10.734375 C 10.753906 -10.015625 11.1875 -9.023438 11.1875 -7.765625 C 11.1875 -6.847656 10.953125 -6.066406 10.484375 -5.421875 C 10.015625 -4.785156 9.347656 -4.328125 8.484375 -4.046875 L 11.375 0 Z M 6.3125 -4.8125 C 7.488281 -4.8125 8.382812 -5.070312 9 -5.59375 C 9.625 -6.113281 9.9375 -6.835938 9.9375 -7.765625 C 9.9375 -8.722656 9.625 -9.457031 9 -9.96875 C 8.382812 -10.488281 7.488281 -10.75 6.3125 -10.75 L 3.171875 -10.75 L 3.171875 -4.8125 Z M 6.3125 -4.8125 " />
      </g>
    </g>
  </g>
  <g fill="#ffffff" fill-opacity="1">
    <g transform="translate(182.976235, 64.255273)">
      <g>
        <path
          d="M 10.28125 -1.078125 L 10.28125 0 L 1.921875 0 L 1.921875 -11.828125 L 10.03125 -11.828125 L 10.03125 -10.75 L 3.171875 -10.75 L 3.171875 -6.53125 L 9.296875 -6.53125 L 9.296875 -5.46875 L 3.171875 -5.46875 L 3.171875 -1.078125 Z M 10.28125 -1.078125 " />
      </g>
    </g>
  </g>
  <g fill="#ffffff" fill-opacity="1">
    <g transform="translate(199.655488, 64.255273)">
      <g />
    </g>
  </g>
  <g fill="#ffffff" fill-opacity="1">
    <g transform="translate(209.465237, 64.255273)">
      <g>
        <path
          d="M 9.375 -6.09375 C 10.15625 -5.925781 10.753906 -5.59375 11.171875 -5.09375 C 11.597656 -4.59375 11.8125 -3.945312 11.8125 -3.15625 C 11.8125 -2.144531 11.4375 -1.363281 10.6875 -0.8125 C 9.9375 -0.269531 8.828125 0 7.359375 0 L 1.921875 0 L 1.921875 -11.828125 L 7.03125 -11.828125 C 8.34375 -11.828125 9.363281 -11.5625 10.09375 -11.03125 C 10.820312 -10.5 11.1875 -9.75 11.1875 -8.78125 C 11.1875 -8.125 11.023438 -7.566406 10.703125 -7.109375 C 10.378906 -6.660156 9.9375 -6.320312 9.375 -6.09375 Z M 3.171875 -10.796875 L 3.171875 -6.5 L 6.9375 -6.5 C 7.894531 -6.5 8.632812 -6.679688 9.15625 -7.046875 C 9.675781 -7.410156 9.9375 -7.941406 9.9375 -8.640625 C 9.9375 -9.335938 9.675781 -9.867188 9.15625 -10.234375 C 8.632812 -10.609375 7.894531 -10.796875 6.9375 -10.796875 Z M 7.34375 -1.03125 C 8.40625 -1.03125 9.207031 -1.207031 9.75 -1.5625 C 10.289062 -1.925781 10.5625 -2.492188 10.5625 -3.265625 C 10.5625 -4.734375 9.488281 -5.46875 7.34375 -5.46875 L 3.171875 -5.46875 L 3.171875 -1.03125 Z M 7.34375 -1.03125 " />
      </g>
    </g>
  </g>
  <g fill="#ffffff" fill-opacity="1">
    <g transform="translate(227.579145, 64.255273)">
      <g>
        <path
          d="M 1.921875 -11.828125 L 3.171875 -11.828125 L 3.171875 -1.078125 L 9.796875 -1.078125 L 9.796875 0 L 1.921875 0 Z M 1.921875 -11.828125 " />
      </g>
    </g>
  </g>
  <g fill="#ffffff" fill-opacity="1">
    <g transform="translate(242.90814, 64.255273)">
      <g>
        <path
          d="M 9.34375 -3.15625 L 2.75 -3.15625 L 1.328125 0 L 0.03125 0 L 5.4375 -11.828125 L 6.671875 -11.828125 L 12.078125 0 L 10.765625 0 Z M 8.890625 -4.171875 L 6.046875 -10.515625 L 3.203125 -4.171875 Z M 8.890625 -4.171875 " />
      </g>
    </g>
  </g>
  <g fill="#ffffff" fill-opacity="1">
    <g transform="translate(260.397565, 64.255273)">
      <g>
        <path
          d="M 11.8125 -11.828125 L 11.8125 0 L 10.78125 0 L 3.171875 -9.59375 L 3.171875 0 L 1.921875 0 L 1.921875 -11.828125 L 2.953125 -11.828125 L 10.578125 -2.234375 L 10.578125 -11.828125 Z M 11.8125 -11.828125 " />
      </g>
    </g>
  </g>
  <g fill="#ffffff" fill-opacity="1">
    <g transform="translate(279.507306, 64.255273)">
      <g>
        <path
          d="M 7.0625 0.09375 C 5.882812 0.09375 4.828125 -0.160156 3.890625 -0.671875 C 2.953125 -1.191406 2.210938 -1.910156 1.671875 -2.828125 C 1.140625 -3.742188 0.875 -4.769531 0.875 -5.90625 C 0.875 -7.050781 1.140625 -8.082031 1.671875 -9 C 2.210938 -9.914062 2.957031 -10.628906 3.90625 -11.140625 C 4.851562 -11.660156 5.910156 -11.921875 7.078125 -11.921875 C 7.953125 -11.921875 8.757812 -11.773438 9.5 -11.484375 C 10.25 -11.191406 10.882812 -10.765625 11.40625 -10.203125 L 10.609375 -9.40625 C 9.679688 -10.34375 8.515625 -10.8125 7.109375 -10.8125 C 6.171875 -10.8125 5.316406 -10.597656 4.546875 -10.171875 C 3.785156 -9.742188 3.1875 -9.15625 2.75 -8.40625 C 2.320312 -7.664062 2.109375 -6.832031 2.109375 -5.90625 C 2.109375 -4.988281 2.320312 -4.15625 2.75 -3.40625 C 3.1875 -2.664062 3.785156 -2.082031 4.546875 -1.65625 C 5.316406 -1.226562 6.171875 -1.015625 7.109375 -1.015625 C 8.523438 -1.015625 9.691406 -1.488281 10.609375 -2.4375 L 11.40625 -1.640625 C 10.882812 -1.078125 10.25 -0.644531 9.5 -0.34375 C 8.75 -0.0507812 7.9375 0.09375 7.0625 0.09375 Z M 7.0625 0.09375 " />
      </g>
    </g>
  </g>
  <g fill="#ffffff" fill-opacity="1">
    <g transform="translate(297.030467, 64.255273)">
      <g>
        <path
          d="M 7.09375 0.09375 C 5.925781 0.09375 4.863281 -0.164062 3.90625 -0.6875 C 2.957031 -1.207031 2.210938 -1.921875 1.671875 -2.828125 C 1.140625 -3.742188 0.875 -4.769531 0.875 -5.90625 C 0.875 -7.050781 1.140625 -8.078125 1.671875 -8.984375 C 2.210938 -9.898438 2.957031 -10.617188 3.90625 -11.140625 C 4.863281 -11.660156 5.925781 -11.921875 7.09375 -11.921875 C 8.257812 -11.921875 9.3125 -11.660156 10.25 -11.140625 C 11.195312 -10.628906 11.941406 -9.914062 12.484375 -9 C 13.023438 -8.082031 13.296875 -7.050781 13.296875 -5.90625 C 13.296875 -4.769531 13.023438 -3.742188 12.484375 -2.828125 C 11.941406 -1.910156 11.195312 -1.191406 10.25 -0.671875 C 9.3125 -0.160156 8.257812 0.09375 7.09375 0.09375 Z M 7.09375 -1.015625 C 8.03125 -1.015625 8.875 -1.222656 9.625 -1.640625 C 10.382812 -2.066406 10.976562 -2.65625 11.40625 -3.40625 C 11.832031 -4.15625 12.046875 -4.988281 12.046875 -5.90625 C 12.046875 -6.832031 11.832031 -7.671875 11.40625 -8.421875 C 10.976562 -9.171875 10.382812 -9.753906 9.625 -10.171875 C 8.875 -10.597656 8.03125 -10.8125 7.09375 -10.8125 C 6.15625 -10.8125 5.304688 -10.597656 4.546875 -10.171875 C 3.785156 -9.753906 3.1875 -9.171875 2.75 -8.421875 C 2.320312 -7.671875 2.109375 -6.832031 2.109375 -5.90625 C 2.109375 -4.988281 2.320312 -4.15625 2.75 -3.40625 C 3.1875 -2.65625 3.785156 -2.066406 4.546875 -1.640625 C 5.304688 -1.222656 6.15625 -1.015625 7.09375 -1.015625 Z M 7.09375 -1.015625 " />
      </g>
    </g>
  </g>
</svg>