<svg xmlns="http://www.w3.org/2000/svg" xmlns:xlink="http://www.w3.org/1999/xlink" width="430"
  zoomAndPan="magnify" viewBox="0 0 322.5 119.999999" height="160"
  preserveAspectRatio="xMidYMid meet" version="1.0">
  <defs>
  <g />
  <clipPath id="748f51b874">
    <path d="M 0 0.09375 L 322 0.09375 L 322 119.90625 L 0 119.90625 Z M 0 0.09375 "
      clip-rule="nonzero" />
  </clipPath>
</defs>
<g clip-path="url(#748f51b874)">
</g>
<g fill="#000000" fill-opacity="1">
  <g transform="translate(22.179208, 113.0837)">
    <g>
        <path
          d="M 45.09375 -106.234375 L 97.640625 -38.4375 L 97.640625 -81.421875 C 97.640625 -86.609375 97.207031 -90.414062 96.34375 -92.84375 C 95.476562 -95.28125 94.664062 -96.929688 93.90625 -97.796875 C 91.632812 -100.503906 88.226562 -102.128906 83.6875 -102.671875 L 83.6875 -106.234375 L 114.5 -106.234375 L 114.5 -102.671875 C 112.125 -102.773438 110.175781 -102.363281 108.65625 -101.4375 C 107.144531 -100.519531 105.957031 -99.46875 105.09375 -98.28125 C 103.582031 -96.226562 102.632812 -93.820312 102.25 -91.0625 C 101.875 -88.3125 101.6875 -85.3125 101.6875 -82.0625 L 101.6875 2.265625 L 96.171875 2.265625 L 24.8125 -89.53125 L 24.8125 -24.328125 C 24.8125 -20.972656 25 -17.914062 25.375 -15.15625 C 25.757812 -12.40625 26.707031 -10.003906 28.21875 -7.953125 C 29.082031 -6.753906 30.269531 -5.695312 31.78125 -4.78125 C 33.300781 -3.863281 35.25 -3.457031 37.625 -3.5625 L 37.625 0 L 6.8125 0 L 6.8125 -3.5625 C 8.976562 -3.78125 10.976562 -4.347656 12.8125 -5.265625 C 14.644531 -6.191406 16.050781 -7.25 17.03125 -8.4375 C 17.894531 -9.519531 18.566406 -10.867188 19.046875 -12.484375 C 19.535156 -14.109375 19.914062 -15.726562 20.1875 -17.34375 C 20.457031 -18.96875 20.617188 -20.484375 20.671875 -21.890625 C 20.734375 -23.296875 20.765625 -24.328125 20.765625 -24.984375 L 20.765625 -90.828125 C 20.765625 -92.660156 20.546875 -94.390625 20.109375 -96.015625 C 19.679688 -97.640625 18.976562 -98.882812 18 -99.75 C 17.457031 -100.289062 16.484375 -100.859375 15.078125 -101.453125 C 13.671875 -102.046875 11.238281 -102.453125 7.78125 -102.671875 L 7.78125 -106.234375 Z M 45.09375 -106.234375 " />
      </g>
    </g>
  </g>
  <g fill="#000000" fill-opacity="1">
    <g transform="translate(174.962821, 113.0837)">
      <g>
        <path
          d="M 58.546875 -106.234375 C 66.117188 -106.234375 72.820312 -105.851562 78.65625 -105.09375 C 84.5 -104.34375 89.582031 -102.664062 93.90625 -100.0625 C 97.039062 -98.226562 99.523438 -95.984375 101.359375 -93.328125 C 103.203125 -90.679688 104.125 -87.46875 104.125 -83.6875 C 104.125 -79.90625 103.257812 -76.71875 101.53125 -74.125 C 99.800781 -71.53125 97.257812 -69.148438 93.90625 -66.984375 C 90.769531 -64.929688 87.304688 -63.335938 83.515625 -62.203125 C 79.734375 -61.066406 75.25 -60.117188 70.0625 -59.359375 L 70.0625 -58.390625 C 72.332031 -57.953125 74.765625 -57.378906 77.359375 -56.671875 C 79.953125 -55.972656 82.546875 -55.140625 85.140625 -54.171875 C 87.742188 -53.203125 90.234375 -52.09375 92.609375 -50.84375 C 94.984375 -49.601562 97.09375 -48.171875 98.9375 -46.546875 C 102.175781 -43.734375 104.414062 -40.757812 105.65625 -37.625 C 106.90625 -34.488281 107.53125 -31.515625 107.53125 -28.703125 C 107.53125 -24.921875 106.71875 -21.300781 105.09375 -17.84375 C 103.476562 -14.382812 101.367188 -11.460938 98.765625 -9.078125 C 96.285156 -6.804688 93.613281 -5.078125 90.75 -3.890625 C 87.882812 -2.703125 84.910156 -1.8125 81.828125 -1.21875 C 78.742188 -0.625 75.578125 -0.269531 72.328125 -0.15625 C 69.085938 -0.0507812 65.953125 0 62.921875 0 L 6.8125 0 L 6.8125 -3.5625 L 20.4375 -3.5625 L 20.4375 -102.671875 L 6.8125 -102.671875 L 6.8125 -106.234375 Z M 55.796875 -3.5625 C 61.847656 -3.5625 66.304688 -4.179688 69.171875 -5.421875 C 72.035156 -6.671875 74.117188 -8.269531 75.421875 -10.21875 C 77.148438 -12.59375 78.203125 -15.078125 78.578125 -17.671875 C 78.953125 -20.273438 79.140625 -22.441406 79.140625 -24.171875 L 79.140625 -35.515625 C 79.140625 -38.222656 78.867188 -41.035156 78.328125 -43.953125 C 77.796875 -46.867188 76.445312 -49.460938 74.28125 -51.734375 C 73.09375 -53.035156 71.738281 -54.0625 70.21875 -54.8125 C 68.707031 -55.570312 67.164062 -56.164062 65.59375 -56.59375 C 64.03125 -57.03125 62.570312 -57.300781 61.21875 -57.40625 C 59.875 -57.519531 58.769531 -57.578125 57.90625 -57.578125 L 45.40625 -57.578125 L 45.40625 -3.5625 Z M 56.921875 -61.140625 C 58.984375 -61.140625 61.363281 -61.382812 64.0625 -61.875 C 66.769531 -62.363281 69.363281 -63.6875 71.84375 -65.84375 C 74.007812 -67.6875 75.332031 -69.550781 75.8125 -71.4375 C 76.300781 -73.332031 76.546875 -75.203125 76.546875 -77.046875 L 76.546875 -87.75 C 76.546875 -90.664062 75.894531 -93.257812 74.59375 -95.53125 C 73.300781 -97.800781 71.46875 -99.53125 69.09375 -100.71875 C 67.25 -101.6875 65.21875 -102.253906 63 -102.421875 C 60.789062 -102.585938 58.765625 -102.671875 56.921875 -102.671875 L 45.40625 -102.671875 L 45.40625 -61.140625 Z M 56.921875 -61.140625 " />
      </g>
    </g>
  </g>
  <path stroke-linecap="butt"
    transform="matrix(0.00000000151998, -0.870883, 0.870883, 0.00000000151998, 160.129314, 116.972516)"
    fill="none" stroke-linejoin="miter" d="M 1.49796 0.999774 L 124.671264 0.999774 "
    stroke="#000000" stroke-width="2" stroke-opacity="1" stroke-miterlimit="4" />
  <path stroke-linecap="round"
    transform="matrix(0.00000000151998, -0.870883, 0.870883, 0.00000000151998, 160.129314, 116.972516)"
    fill="none" stroke-linejoin="round" d="M 1.000082 -2.000952 L 1.000082 4.0005 " stroke="#000000"
    stroke-width="2" stroke-opacity="1" stroke-miterlimit="4" />
  <path stroke-linecap="round"
    transform="matrix(0.00000000151998, -0.870883, 0.870883, 0.00000000151998, 160.129314, 116.972516)"
    fill="none" stroke-linejoin="round" d="M 125.173628 -2.000953 L 125.173628 4.0005 "
    stroke="#000000" stroke-width="2" stroke-opacity="1" stroke-miterlimit="4" />
 
  <g fill="#000000" fill-opacity="1">
    <g transform="translate(10.948453, 65.772038)">
      <g>
        <path
          d="M 11.796875 -11.8125 L 11.796875 0 L 10.765625 0 L 3.171875 -9.578125 L 3.171875 0 L 1.921875 0 L 1.921875 -11.8125 L 2.953125 -11.8125 L 10.5625 -2.234375 L 10.5625 -11.8125 Z M 11.796875 -11.8125 " />
      </g>
    </g>
  </g>
  <g fill="#000000" fill-opacity="1">
    <g transform="translate(30.037096, 65.772038)">
      <g>
        <path
          d="M 10.28125 -1.078125 L 10.28125 0 L 1.921875 0 L 1.921875 -11.8125 L 10.03125 -11.8125 L 10.03125 -10.734375 L 3.171875 -10.734375 L 3.171875 -6.53125 L 9.28125 -6.53125 L 9.28125 -5.46875 L 3.171875 -5.46875 L 3.171875 -1.078125 Z M 10.28125 -1.078125 " />
      </g>
    </g>
  </g>
  <g fill="#000000" fill-opacity="1">
    <g transform="translate(46.697935, 65.772038)">
      <g>
        <path
          d="M 10.25 -5.90625 L 11.4375 -5.90625 L 11.4375 -1.40625 C 10.882812 -0.914062 10.234375 -0.539062 9.484375 -0.28125 C 8.734375 -0.03125 7.941406 0.09375 7.109375 0.09375 C 5.921875 0.09375 4.851562 -0.160156 3.90625 -0.671875 C 2.96875 -1.191406 2.226562 -1.910156 1.6875 -2.828125 C 1.144531 -3.742188 0.875 -4.769531 0.875 -5.90625 C 0.875 -7.039062 1.144531 -8.066406 1.6875 -8.984375 C 2.226562 -9.898438 2.96875 -10.613281 3.90625 -11.125 C 4.851562 -11.644531 5.925781 -11.90625 7.125 -11.90625 C 8.019531 -11.90625 8.84375 -11.757812 9.59375 -11.46875 C 10.351562 -11.1875 10.992188 -10.765625 11.515625 -10.203125 L 10.734375 -9.421875 C 9.796875 -10.335938 8.609375 -10.796875 7.171875 -10.796875 C 6.210938 -10.796875 5.347656 -10.582031 4.578125 -10.15625 C 3.804688 -9.738281 3.203125 -9.15625 2.765625 -8.40625 C 2.328125 -7.664062 2.109375 -6.832031 2.109375 -5.90625 C 2.109375 -4.976562 2.328125 -4.144531 2.765625 -3.40625 C 3.203125 -2.664062 3.800781 -2.082031 4.5625 -1.65625 C 5.332031 -1.226562 6.195312 -1.015625 7.15625 -1.015625 C 8.375 -1.015625 9.40625 -1.316406 10.25 -1.921875 Z M 10.25 -5.90625 " />
      </g>
    </g>
  </g>
  <g fill="#000000" fill-opacity="1">
    <g transform="translate(65.112195, 65.772038)">
      <g>
        <path
          d="M 9.984375 0 L 7.296875 -3.796875 C 6.984375 -3.765625 6.664062 -3.75 6.34375 -3.75 L 3.171875 -3.75 L 3.171875 0 L 1.921875 0 L 1.921875 -11.8125 L 6.34375 -11.8125 C 7.851562 -11.8125 9.035156 -11.453125 9.890625 -10.734375 C 10.742188 -10.015625 11.171875 -9.023438 11.171875 -7.765625 C 11.171875 -6.835938 10.9375 -6.054688 10.46875 -5.421875 C 10 -4.785156 9.332031 -4.328125 8.46875 -4.046875 L 11.359375 0 Z M 6.3125 -4.8125 C 7.476562 -4.8125 8.367188 -5.066406 8.984375 -5.578125 C 9.609375 -6.097656 9.921875 -6.828125 9.921875 -7.765625 C 9.921875 -8.722656 9.609375 -9.457031 8.984375 -9.96875 C 8.367188 -10.476562 7.476562 -10.734375 6.3125 -10.734375 L 3.171875 -10.734375 L 3.171875 -4.8125 Z M 6.3125 -4.8125 " />
      </g>
    </g>
  </g>
  <g fill="#000000" fill-opacity="1">
    <g transform="translate(82.683464, 65.772038)">
      <g>
        <path
          d="M 7.09375 0.09375 C 5.914062 0.09375 4.851562 -0.164062 3.90625 -0.6875 C 2.957031 -1.207031 2.210938 -1.921875 1.671875 -2.828125 C 1.140625 -3.742188 0.875 -4.769531 0.875 -5.90625 C 0.875 -7.039062 1.140625 -8.0625 1.671875 -8.96875 C 2.210938 -9.882812 2.957031 -10.601562 3.90625 -11.125 C 4.851562 -11.644531 5.914062 -11.90625 7.09375 -11.90625 C 8.257812 -11.90625 9.3125 -11.644531 10.25 -11.125 C 11.1875 -10.613281 11.925781 -9.898438 12.46875 -8.984375 C 13.007812 -8.066406 13.28125 -7.039062 13.28125 -5.90625 C 13.28125 -4.769531 13.007812 -3.742188 12.46875 -2.828125 C 11.925781 -1.910156 11.1875 -1.191406 10.25 -0.671875 C 9.3125 -0.160156 8.257812 0.09375 7.09375 0.09375 Z M 7.09375 -1.015625 C 8.019531 -1.015625 8.859375 -1.222656 9.609375 -1.640625 C 10.367188 -2.066406 10.960938 -2.648438 11.390625 -3.390625 C 11.816406 -4.140625 12.03125 -4.976562 12.03125 -5.90625 C 12.03125 -6.832031 11.816406 -7.664062 11.390625 -8.40625 C 10.960938 -9.15625 10.367188 -9.738281 9.609375 -10.15625 C 8.859375 -10.582031 8.019531 -10.796875 7.09375 -10.796875 C 6.15625 -10.796875 5.304688 -10.582031 4.546875 -10.15625 C 3.785156 -9.738281 3.1875 -9.15625 2.75 -8.40625 C 2.320312 -7.664062 2.109375 -6.832031 2.109375 -5.90625 C 2.109375 -4.976562 2.320312 -4.140625 2.75 -3.390625 C 3.1875 -2.648438 3.785156 -2.066406 4.546875 -1.640625 C 5.304688 -1.222656 6.15625 -1.015625 7.09375 -1.015625 Z M 7.09375 -1.015625 " />
      </g>
    </g>
  </g>
  <g fill="#000000" fill-opacity="1">
    <g transform="translate(102.210459, 65.772038)">
      <g />
    </g>
  </g>
  <g fill="#000000" fill-opacity="1">
    <g transform="translate(112.009387, 65.772038)">
      <g>
        <path
          d="M 5.1875 0.09375 C 4.300781 0.09375 3.457031 -0.046875 2.65625 -0.328125 C 1.851562 -0.609375 1.234375 -0.976562 0.796875 -1.4375 L 1.28125 -2.390625 C 1.707031 -1.960938 2.273438 -1.617188 2.984375 -1.359375 C 3.691406 -1.097656 4.425781 -0.96875 5.1875 -0.96875 C 6.238281 -0.96875 7.03125 -1.160156 7.5625 -1.546875 C 8.09375 -1.929688 8.359375 -2.429688 8.359375 -3.046875 C 8.359375 -3.523438 8.210938 -3.90625 7.921875 -4.1875 C 7.640625 -4.46875 7.289062 -4.679688 6.875 -4.828125 C 6.457031 -4.984375 5.875 -5.148438 5.125 -5.328125 C 4.238281 -5.554688 3.53125 -5.773438 3 -5.984375 C 2.46875 -6.191406 2.015625 -6.507812 1.640625 -6.9375 C 1.265625 -7.363281 1.078125 -7.941406 1.078125 -8.671875 C 1.078125 -9.265625 1.234375 -9.804688 1.546875 -10.296875 C 1.867188 -10.785156 2.351562 -11.175781 3 -11.46875 C 3.65625 -11.757812 4.46875 -11.90625 5.4375 -11.90625 C 6.113281 -11.90625 6.773438 -11.8125 7.421875 -11.625 C 8.066406 -11.445312 8.625 -11.195312 9.09375 -10.875 L 8.671875 -9.875 C 8.179688 -10.195312 7.65625 -10.4375 7.09375 -10.59375 C 6.53125 -10.757812 5.976562 -10.84375 5.4375 -10.84375 C 4.394531 -10.84375 3.613281 -10.644531 3.09375 -10.25 C 2.570312 -9.851562 2.3125 -9.335938 2.3125 -8.703125 C 2.3125 -8.234375 2.453125 -7.851562 2.734375 -7.5625 C 3.023438 -7.28125 3.382812 -7.0625 3.8125 -6.90625 C 4.25 -6.757812 4.832031 -6.59375 5.5625 -6.40625 C 6.4375 -6.195312 7.140625 -5.988281 7.671875 -5.78125 C 8.203125 -5.570312 8.648438 -5.253906 9.015625 -4.828125 C 9.390625 -4.410156 9.578125 -3.84375 9.578125 -3.125 C 9.578125 -2.53125 9.414062 -1.988281 9.09375 -1.5 C 8.78125 -1.007812 8.289062 -0.617188 7.625 -0.328125 C 6.957031 -0.046875 6.144531 0.09375 5.1875 0.09375 Z M 5.1875 0.09375 " />
      </g>
    </g>
  </g>
  <g fill="#000000" fill-opacity="1">
    <g transform="translate(127.759803, 65.772038)">
      <g>
        <path
          d="M 7.09375 0.09375 C 5.914062 0.09375 4.851562 -0.164062 3.90625 -0.6875 C 2.957031 -1.207031 2.210938 -1.921875 1.671875 -2.828125 C 1.140625 -3.742188 0.875 -4.769531 0.875 -5.90625 C 0.875 -7.039062 1.140625 -8.0625 1.671875 -8.96875 C 2.210938 -9.882812 2.957031 -10.601562 3.90625 -11.125 C 4.851562 -11.644531 5.914062 -11.90625 7.09375 -11.90625 C 8.257812 -11.90625 9.3125 -11.644531 10.25 -11.125 C 11.1875 -10.613281 11.925781 -9.898438 12.46875 -8.984375 C 13.007812 -8.066406 13.28125 -7.039062 13.28125 -5.90625 C 13.28125 -4.769531 13.007812 -3.742188 12.46875 -2.828125 C 11.925781 -1.910156 11.1875 -1.191406 10.25 -0.671875 C 9.3125 -0.160156 8.257812 0.09375 7.09375 0.09375 Z M 7.09375 -1.015625 C 8.019531 -1.015625 8.859375 -1.222656 9.609375 -1.640625 C 10.367188 -2.066406 10.960938 -2.648438 11.390625 -3.390625 C 11.816406 -4.140625 12.03125 -4.976562 12.03125 -5.90625 C 12.03125 -6.832031 11.816406 -7.664062 11.390625 -8.40625 C 10.960938 -9.15625 10.367188 -9.738281 9.609375 -10.15625 C 8.859375 -10.582031 8.019531 -10.796875 7.09375 -10.796875 C 6.15625 -10.796875 5.304688 -10.582031 4.546875 -10.15625 C 3.785156 -9.738281 3.1875 -9.15625 2.75 -8.40625 C 2.320312 -7.664062 2.109375 -6.832031 2.109375 -5.90625 C 2.109375 -4.976562 2.320312 -4.140625 2.75 -3.390625 C 3.1875 -2.648438 3.785156 -2.066406 4.546875 -1.640625 C 5.304688 -1.222656 6.15625 -1.015625 7.09375 -1.015625 Z M 7.09375 -1.015625 " />
      </g>
    </g>
  </g>
  <g fill="#000000" fill-opacity="1">
    <g transform="translate(147.286791, 65.772038)">
      <g>
        <path
          d="M 9.359375 -6.09375 C 10.140625 -5.925781 10.738281 -5.59375 11.15625 -5.09375 C 11.582031 -4.59375 11.796875 -3.945312 11.796875 -3.15625 C 11.796875 -2.144531 11.421875 -1.363281 10.671875 -0.8125 C 9.921875 -0.269531 8.816406 0 7.359375 0 L 1.921875 0 L 1.921875 -11.8125 L 7.015625 -11.8125 C 8.335938 -11.8125 9.359375 -11.546875 10.078125 -11.015625 C 10.804688 -10.484375 11.171875 -9.738281 11.171875 -8.78125 C 11.171875 -8.125 11.007812 -7.566406 10.6875 -7.109375 C 10.363281 -6.648438 9.921875 -6.3125 9.359375 -6.09375 Z M 3.171875 -10.78125 L 3.171875 -6.5 L 6.9375 -6.5 C 7.894531 -6.5 8.628906 -6.679688 9.140625 -7.046875 C 9.660156 -7.410156 9.921875 -7.941406 9.921875 -8.640625 C 9.921875 -9.335938 9.660156 -9.867188 9.140625 -10.234375 C 8.628906 -10.597656 7.894531 -10.78125 6.9375 -10.78125 Z M 7.34375 -1.03125 C 8.394531 -1.03125 9.191406 -1.207031 9.734375 -1.5625 C 10.273438 -1.925781 10.546875 -2.488281 10.546875 -3.25 C 10.546875 -4.726562 9.476562 -5.46875 7.34375 -5.46875 L 3.171875 -5.46875 L 3.171875 -1.03125 Z M 7.34375 -1.03125 " />
      </g>
    </g>
  </g>
  <g fill="#000000" fill-opacity="1">
    <g transform="translate(165.380708, 65.772038)">
      <g>
        <path
          d="M 9.984375 0 L 7.296875 -3.796875 C 6.984375 -3.765625 6.664062 -3.75 6.34375 -3.75 L 3.171875 -3.75 L 3.171875 0 L 1.921875 0 L 1.921875 -11.8125 L 6.34375 -11.8125 C 7.851562 -11.8125 9.035156 -11.453125 9.890625 -10.734375 C 10.742188 -10.015625 11.171875 -9.023438 11.171875 -7.765625 C 11.171875 -6.835938 10.9375 -6.054688 10.46875 -5.421875 C 10 -4.785156 9.332031 -4.328125 8.46875 -4.046875 L 11.359375 0 Z M 6.3125 -4.8125 C 7.476562 -4.8125 8.367188 -5.066406 8.984375 -5.578125 C 9.609375 -6.097656 9.921875 -6.828125 9.921875 -7.765625 C 9.921875 -8.722656 9.609375 -9.457031 8.984375 -9.96875 C 8.367188 -10.476562 7.476562 -10.734375 6.3125 -10.734375 L 3.171875 -10.734375 L 3.171875 -4.8125 Z M 6.3125 -4.8125 " />
      </g>
    </g>
  </g>
  <g fill="#000000" fill-opacity="1">
    <g transform="translate(182.951984, 65.772038)">
      <g>
        <path
          d="M 10.28125 -1.078125 L 10.28125 0 L 1.921875 0 L 1.921875 -11.8125 L 10.03125 -11.8125 L 10.03125 -10.734375 L 3.171875 -10.734375 L 3.171875 -6.53125 L 9.28125 -6.53125 L 9.28125 -5.46875 L 3.171875 -5.46875 L 3.171875 -1.078125 Z M 10.28125 -1.078125 " />
      </g>
    </g>
  </g>
  <g fill="#000000" fill-opacity="1">
    <g transform="translate(199.612829, 65.772038)">
      <g />
    </g>
  </g>
  <g fill="#000000" fill-opacity="1">
    <g transform="translate(209.411751, 65.772038)">
      <g>
        <path
          d="M 9.359375 -6.09375 C 10.140625 -5.925781 10.738281 -5.59375 11.15625 -5.09375 C 11.582031 -4.59375 11.796875 -3.945312 11.796875 -3.15625 C 11.796875 -2.144531 11.421875 -1.363281 10.671875 -0.8125 C 9.921875 -0.269531 8.816406 0 7.359375 0 L 1.921875 0 L 1.921875 -11.8125 L 7.015625 -11.8125 C 8.335938 -11.8125 9.359375 -11.546875 10.078125 -11.015625 C 10.804688 -10.484375 11.171875 -9.738281 11.171875 -8.78125 C 11.171875 -8.125 11.007812 -7.566406 10.6875 -7.109375 C 10.363281 -6.648438 9.921875 -6.3125 9.359375 -6.09375 Z M 3.171875 -10.78125 L 3.171875 -6.5 L 6.9375 -6.5 C 7.894531 -6.5 8.628906 -6.679688 9.140625 -7.046875 C 9.660156 -7.410156 9.921875 -7.941406 9.921875 -8.640625 C 9.921875 -9.335938 9.660156 -9.867188 9.140625 -10.234375 C 8.628906 -10.597656 7.894531 -10.78125 6.9375 -10.78125 Z M 7.34375 -1.03125 C 8.394531 -1.03125 9.191406 -1.207031 9.734375 -1.5625 C 10.273438 -1.925781 10.546875 -2.488281 10.546875 -3.25 C 10.546875 -4.726562 9.476562 -5.46875 7.34375 -5.46875 L 3.171875 -5.46875 L 3.171875 -1.03125 Z M 7.34375 -1.03125 " />
      </g>
    </g>
  </g>
  <g fill="#000000" fill-opacity="1">
    <g transform="translate(227.505668, 65.772038)">
      <g>
        <path
          d="M 1.921875 -11.8125 L 3.171875 -11.8125 L 3.171875 -1.078125 L 9.78125 -1.078125 L 9.78125 0 L 1.921875 0 Z M 1.921875 -11.8125 " />
      </g>
    </g>
  </g>
  <g fill="#000000" fill-opacity="1">
    <g transform="translate(242.817746, 65.772038)">
      <g>
        <path
          d="M 9.328125 -3.15625 L 2.75 -3.15625 L 1.328125 0 L 0.03125 0 L 5.4375 -11.8125 L 6.671875 -11.8125 L 12.0625 0 L 10.75 0 Z M 8.875 -4.171875 L 6.046875 -10.515625 L 3.203125 -4.171875 Z M 8.875 -4.171875 " />
      </g>
    </g>
  </g>
  <g fill="#000000" fill-opacity="1">
    <g transform="translate(260.287868, 65.772038)">
      <g>
        <path
          d="M 11.796875 -11.8125 L 11.796875 0 L 10.765625 0 L 3.171875 -9.578125 L 3.171875 0 L 1.921875 0 L 1.921875 -11.8125 L 2.953125 -11.8125 L 10.5625 -2.234375 L 10.5625 -11.8125 Z M 11.796875 -11.8125 " />
      </g>
    </g>
  </g>
  <g fill="#000000" fill-opacity="1">
    <g transform="translate(279.376519, 65.772038)">
      <g>
        <path
          d="M 7.046875 0.09375 C 5.878906 0.09375 4.828125 -0.160156 3.890625 -0.671875 C 2.953125 -1.191406 2.210938 -1.910156 1.671875 -2.828125 C 1.140625 -3.742188 0.875 -4.769531 0.875 -5.90625 C 0.875 -7.039062 1.140625 -8.066406 1.671875 -8.984375 C 2.210938 -9.898438 2.953125 -10.613281 3.890625 -11.125 C 4.835938 -11.644531 5.898438 -11.90625 7.078125 -11.90625 C 7.953125 -11.90625 8.757812 -11.757812 9.5 -11.46875 C 10.238281 -11.175781 10.867188 -10.75 11.390625 -10.1875 L 10.59375 -9.40625 C 9.675781 -10.332031 8.515625 -10.796875 7.109375 -10.796875 C 6.171875 -10.796875 5.316406 -10.582031 4.546875 -10.15625 C 3.785156 -9.726562 3.1875 -9.144531 2.75 -8.40625 C 2.320312 -7.664062 2.109375 -6.832031 2.109375 -5.90625 C 2.109375 -4.976562 2.320312 -4.144531 2.75 -3.40625 C 3.1875 -2.664062 3.785156 -2.082031 4.546875 -1.65625 C 5.316406 -1.226562 6.171875 -1.015625 7.109375 -1.015625 C 8.523438 -1.015625 9.6875 -1.488281 10.59375 -2.4375 L 11.390625 -1.640625 C 10.867188 -1.078125 10.234375 -0.644531 9.484375 -0.34375 C 8.742188 -0.0507812 7.929688 0.09375 7.046875 0.09375 Z M 7.046875 0.09375 " />
      </g>
    </g>
  </g>
  <g fill="#000000" fill-opacity="1">
    <g transform="translate(296.880341, 65.772038)">
      <g>
        <path
          d="M 7.09375 0.09375 C 5.914062 0.09375 4.851562 -0.164062 3.90625 -0.6875 C 2.957031 -1.207031 2.210938 -1.921875 1.671875 -2.828125 C 1.140625 -3.742188 0.875 -4.769531 0.875 -5.90625 C 0.875 -7.039062 1.140625 -8.0625 1.671875 -8.96875 C 2.210938 -9.882812 2.957031 -10.601562 3.90625 -11.125 C 4.851562 -11.644531 5.914062 -11.90625 7.09375 -11.90625 C 8.257812 -11.90625 9.3125 -11.644531 10.25 -11.125 C 11.1875 -10.613281 11.925781 -9.898438 12.46875 -8.984375 C 13.007812 -8.066406 13.28125 -7.039062 13.28125 -5.90625 C 13.28125 -4.769531 13.007812 -3.742188 12.46875 -2.828125 C 11.925781 -1.910156 11.1875 -1.191406 10.25 -0.671875 C 9.3125 -0.160156 8.257812 0.09375 7.09375 0.09375 Z M 7.09375 -1.015625 C 8.019531 -1.015625 8.859375 -1.222656 9.609375 -1.640625 C 10.367188 -2.066406 10.960938 -2.648438 11.390625 -3.390625 C 11.816406 -4.140625 12.03125 -4.976562 12.03125 -5.90625 C 12.03125 -6.832031 11.816406 -7.664062 11.390625 -8.40625 C 10.960938 -9.15625 10.367188 -9.738281 9.609375 -10.15625 C 8.859375 -10.582031 8.019531 -10.796875 7.09375 -10.796875 C 6.15625 -10.796875 5.304688 -10.582031 4.546875 -10.15625 C 3.785156 -9.738281 3.1875 -9.15625 2.75 -8.40625 C 2.320312 -7.664062 2.109375 -6.832031 2.109375 -5.90625 C 2.109375 -4.976562 2.320312 -4.140625 2.75 -3.390625 C 3.1875 -2.648438 3.785156 -2.066406 4.546875 -1.640625 C 5.304688 -1.222656 6.15625 -1.015625 7.09375 -1.015625 Z M 7.09375 -1.015625 " />
      </g>
    </g>
  </g>
</svg>